<?xml version="1.0" encoding="utf-8"?>
<!-- Generator: Adobe Illustrator 22.0.1, SVG Export Plug-In . SVG Version: 6.00 Build 0)  -->
<svg version="1.1" id="Layer_1" xmlns="http://www.w3.org/2000/svg" xmlns:xlink="http://www.w3.org/1999/xlink" x="0px" y="0px"
	 viewBox="0 0 100 100" style="enable-background:new 0 0 100 100;" xml:space="preserve">
<style type="text/css">
	.st0{fill:#FFFFFF;}
</style>
<g>
	<path class="st0" d="M89.4,22.8c-3-5.3-8.8-8.2-15-8.1l0.2-2.2c0.4-3.6-1.8-6.7-4.9-6.7H30.3c-3.1,0-5.3,3-4.9,6.7l0.3,2.9
		c-6.2-0.3-12.1,2.7-15.1,8.3c-4.6,8.6-0.9,20.1,8.1,25.8c3.6,2.2,7.5,3.2,11.2,3C32.9,68,47.3,63.3,47.5,72
		c0,12.2-2.5,17.1-17.3,22h39.5c-14.8-7.3-17.3-9.8-17.3-22c0.2-9.1,15.8-5.5,17.9-21.2c3.5,0,7.2-1,10.6-3
		C90.4,42.4,94.1,31.2,89.4,22.8z M21.1,45.1c-6.8-4.2-9.7-12.7-6.4-18.8c2.2-4.2,6.8-6.2,11.6-5.7l1.1,9.9l1.9,17
		C26.5,47.5,23.7,46.8,21.1,45.1z M62.1,28l-4.7,4.3l1,5.7c0.1,0.2,0.1,0.4,0.1,0.6c0,0.9-0.8,1.6-1.7,1.6c0,0,0,0,0,0
		c-0.3,0-0.5-0.1-0.8-0.2l-5.8-2.8L44.5,40c-0.6,0.3-1.3,0.2-1.8-0.1c-0.5-0.4-0.8-1-0.7-1.6l1.1-6L38.5,28
		c-0.5-0.4-0.6-1.1-0.4-1.6c0.2-0.6,0.7-1,1.4-1.1l6.4-0.9l2.9-5.5c0.6-1.1,2.5-1.1,3,0l2.9,5.5l6.4,0.9c0.6,0.1,1.2,0.5,1.4,1.1
		C62.7,27,62.6,27.6,62.1,28z M78.5,43.6c-2.4,1.4-5.1,2.2-7.6,2.3l1.7-15.4l1.2-10.8c4.7-0.2,9.1,1.7,11.3,5.6
		C88.5,31.3,85.6,39.4,78.5,43.6z"/>
</g>
</svg>
