<?xml version="1.0" encoding="utf-8"?>
<!-- Generator: Adobe Illustrator 22.0.1, SVG Export Plug-In . SVG Version: 6.00 Build 0)  -->
<svg version="1.1" id="Layer_1" xmlns="http://www.w3.org/2000/svg" xmlns:xlink="http://www.w3.org/1999/xlink" x="0px" y="0px"
	 viewBox="0 0 400.2 400.2" style="enable-background:new 0 0 400.2 400.2;" xml:space="preserve">
<style type="text/css">
	.st0{fill:#FFFFFF;}
</style>
<path id="icon" class="st0" d="M386.4,140.9l-62.8-64.7C306.9,59,273.9,50.8,250.3,58L47,120.2c-12.4,3.8-19.9,11.1-21.7,19.7
	c0-0.1,0-0.2,0.1-0.3L3,237.6c-1.8,7.8,1.1,16.7,9.1,25l62.8,64.7c16.7,17.2,49.7,25.4,73.3,18.2l195.7-59.9
	c-4.3-1.4-3.6-5.5-3.6-10.2v-2.5c0-2.1,0.5-4,0.5-4h-0.4c-4.2,8.6-15.4,16.6-30.8,16.6c-19.1,0-30.8-9.7-30.8-34.1v-31.2
	c0-2.6-1.5-5-4-5h-6.9V195h21.1c8.3,0,11.6,4.5,11.6,12.6v40c0,10.9,3.2,17.5,14.2,17.5c16.2,0,25.5-14.2,25.5-30.2V195h21.8v67.5
	c0,2.5,1.4,3.3,3.9,3.3h6.4c3.8-17.4,0,0.1,23.2-100.1c0,0.2-0.1,0.4-0.1,0.5C397.4,158.3,394.6,149.3,386.4,140.9z M171.3,184.1
	H152V286h-22.6V184.1H110c-2.5,0-3.2,2.2-3.2,4.6v3.1h-21V175c0-8.3,2.9-10.4,11.4-10.4h86.9c8.4,0,11.5,2.2,11.5,10.4v16.8h-19.5
	v-3.1C176.1,186.3,173.8,184.1,171.3,184.1z M260.2,215.2c0,0-2.7,0-5.9,0c-9.5,0-20.2,7.5-24.2,20.8c-1.2,4.4-1.8,9.3-1.8,14.6V286
	h-22.6v-65.8c0-2.6-1.5-5-4-5h-6.1V195h19.5c7.9,0,11.7,4.1,11.7,11.7v5.3c0,3.3-0.1,3.3-0.1,3.3h0.4c4-12.4,15.1-20.7,28.8-20.7
	c2.4,0,4.4,0.4,4.4,0.4V215.2z"/>
</svg>
