<?xml version="1.0" encoding="utf-8"?>
<!-- Generator: Adobe Illustrator 22.0.1, SVG Export Plug-In . SVG Version: 6.00 Build 0)  -->
<svg version="1.1" id="Layer_1" xmlns="http://www.w3.org/2000/svg" xmlns:xlink="http://www.w3.org/1999/xlink" x="0px" y="0px"
	 viewBox="0 0 100 100" style="enable-background:new 0 0 100 100;" xml:space="preserve">
<style type="text/css">
	.st0{fill:#FFFFFF;}
</style>
<path class="st0" d="M10,36.7h6.7c0-10.1,6-19.5,14.9-23.5l-3.3-5.8C17.3,12.5,10,24.3,10,36.7z M90,36.7c0-12.4-7.3-24.1-18.3-29.3
	l-3.3,5.8c8.9,4,14.9,13.4,14.9,23.5H90z M85.9,68.8c-5.1-2.5-8.1-9.1-8.8-21.5c-0.9-14.4-3.9-27.5-20.5-30.2
	c-0.4-5-3.5-7.1-6.7-7.1c-3.1,0-6.1,2.3-6.5,7.1c-16.5,2.7-19.5,15.7-20.5,30.2c-0.7,11.5-3.4,18.9-8.8,21.5c-2,1-2.1,0.7-2.1,4.4
	c0,3.4,0,3.4,3.4,3.4h69.1c3.4,0,3.4,0,3.4-3.4C88,69.9,88.1,69.9,85.9,68.8z M49.9,93.3c5.1,0,10.3-3,10.3-9.9H39.7
	C39.7,90.1,44.7,93.3,49.9,93.3z"/>
</svg>
