<?xml version="1.0" encoding="utf-8"?>
<!-- Generator: Adobe Illustrator 22.0.1, SVG Export Plug-In . SVG Version: 6.00 Build 0)  -->
<svg version="1.1" id="Layer_1" xmlns="http://www.w3.org/2000/svg" xmlns:xlink="http://www.w3.org/1999/xlink" x="0px" y="0px"
	 viewBox="0 0 52 52" style="enable-background:new 0 0 52 52;" xml:space="preserve">
<style type="text/css">
	.st0{fill:#FFFFFF;}
</style>
<g>
	<path class="st0" d="M5.2,27.4h9.8l2.8-4.8c0.2-0.3,0.6-0.5,1-0.5c0.4,0.1,0.7,0.3,0.8,0.7l2.4,8.4l3.2-14.9
		c0.1-0.4,0.5-0.8,0.9-0.8c0.5,0,0.9,0.3,1,0.7l3.1,9.2c0.6-1.5,1.3-3.4,2-5.3c0.1-0.4,0.5-0.6,0.9-0.7c0.4,0,0.8,0.2,0.9,0.6
		l3.1,6.6h10.1c0.6-0.8,0.9-1.3,0.9-1.4c1.2-2.2,1.9-4.7,1.9-7.2c0-7.8-6-14.1-13.3-14.1c-4.3,0-8.2,2.2-10.7,5.8
		c-2.5-3.6-6.5-5.8-10.7-5.8C8,4.1,2,10.4,2,18.2c0,2.5,0.6,5,1.9,7.2C3.9,25.5,4.4,26.2,5.2,27.4z"/>
	<path class="st0" d="M36.5,28.8c-0.4,0-0.7-0.2-0.9-0.6l-2.3-5c-2,5.4-2.3,5.7-2.5,5.8c-0.2,0.2-0.6,0.3-0.9,0.3
		c-0.3-0.1-0.6-0.3-0.7-0.7l-2.7-8.2l-3.2,15.2c-0.1,0.4-0.5,0.8-0.9,0.8c0,0,0,0,0,0c-0.4,0-0.8-0.3-1-0.7l-2.8-10l-1.9,3.2
		c-0.2,0.3-0.5,0.5-0.9,0.5H6.7c3.2,4.1,9.1,10.8,18.7,18.3c0.2,0.2,0.4,0.2,0.6,0.2c0.2,0,0.4-0.1,0.6-0.2
		c10.1-7.9,16.2-15,19.2-19H36.5z"/>
</g>
</svg>
